<svg xmlns="http://www.w3.org/2000/svg" viewBox="0 0 133.643 37.623"><path class="quadrado" d="M778.09,0l-3.94,8.357h8.042L786.132,0Z" transform="translate(-652.489 0)"></path><path d="M303.891,16.9l-9.777,20.727h-8.19L282.4,8.268H256.133L260.039,0H290.53L292.965,18.8,301.539.042l.021.036L301.593,0h9.392L313.421,18.8l6.5-14.049A7.465,7.465,0,0,1,327.05,0l10.872,0-4.159,8.324-2.634-.021c-2.152-.017-3.44.443-4.268,2.424L314.569,37.623h-8.19Z" transform="translate(-215.881)"></path><path d="M255.394,74.909,243.228,100.76H231.9l12.155-25.851Z" transform="translate(-195.459 -63.136)"></path><path d="M40.361.031,36.405,8.294H27.991c-1.631,0-3.61.664-3.61,2.612,0,2.1,3.544,2.955,5.633,3.573A9,9,0,0,1,36.632,22.9c.123,7.3-5.813,13.714-12.486,14.289a100.8,100.8,0,0,1-10.625.46H0l3.9-8.263h11c2.981,0,9.127.461,10.617-2.522,1.543-3.562-.8-5.4-4.223-6.438C7.778,15.87,13.729.031,25.565.031Z" transform="translate(0 -0.026)"></path></svg>